# xmcd
#
# Track frame offsets:
#	150
#	3360
#	14607
#	27407
#	38172
#	49117
#	60197
#	71640
#	86160
#	97945
#	110247
#	123062
#	134142
#	149995
#	162190
#	176435
#	186050
#	195462
#	208107
#	223267
#
# Disc length: 3135 seconds
#
# Revision: 1
# Processed by: cddbd v1.4PL0 Copyright (c) Steve Scherf et al.
# Submitted via: audiograbber 1.81.03
#
DISCID=290c3d14
DTITLE=Rufus Thomas - Can't Get Away From This Dog
DYEAR=1900
DGENRE=
TTITLE0=Promo
TTITLE1=Can't Get Away From This Dog
TTITLE2=44 Long
TTITLE3=Strolling Beale No. 1
TTITLE4=Cherry Red
TTITLE5=Walking The Dog
TTITLE6=Carry Me Back To Old Virginny
TTITLE7=Barefootin
TTITLE8=A Story That's Never Been Told
TTITLE9=Last Clean Shirt
TTITLE10=Show Me The Way To Go Home
TTITLE11=Jump Back
TTITLE12=My Girl
TTITLE13=We're Going To Make It (Duet with Carla Thomas)
TTITLE14=Don't Mess Up A Good Thing (With Carla Thomas)
TTITLE15=I Want To Hold You
TTITLE16=Can Your Monkey Do The Dog
TTITLE17=Stop Kicking My Dog Around
TTITLE18=Wang Dang Doodle
TTITLE19=Reconsider Baby (With Carla Thomas)
EXTD=
EXTT0=
EXTT1=
EXTT2=
EXTT3=
EXTT4=
EXTT5=
EXTT6=
EXTT7=
EXTT8=
EXTT9=
EXTT10=
EXTT11=
EXTT12=
EXTT13=
EXTT14=
EXTT15=
EXTT16=
EXTT17=
EXTT18=
EXTT19=
PLAYORDER=
